HIERARCHY
ROOT Hips
{
 OFFSET 0.000000 0.000000 0.000000
 CHANNELS 6 Xposition Yposition Zposition Yrotation Xrotation Zrotation
 JOINT Chest
 {
  OFFSET 0.000000 9.857222 0.000240
  CHANNELS 3 Yrotation Xrotation Zrotation
  JOINT Chest2
  {
   OFFSET 0.000000 10.876940 -0.000436
   CHANNELS 3 Yrotation Xrotation Zrotation
   JOINT Chest3
   {
    OFFSET 0.000000 9.827798 0.000000
    CHANNELS 3 Yrotation Xrotation Zrotation
    JOINT Chest4
    {
     OFFSET 0.000000 9.827798 0.000000
     CHANNELS 3 Yrotation Xrotation Zrotation
     JOINT Neck
     {
      OFFSET 0.000000 13.831992 0.000000
      CHANNELS 3 Yrotation Xrotation Zrotation
      JOINT Head
      {
       OFFSET 0.000000 9.147643 -0.001036
       CHANNELS 3 Yrotation Xrotation Zrotation
       End Site
       {
        OFFSET 0.000000 17.515799 -0.000541
       }
      }
     }
     JOINT RightCollar
     {
      OFFSET -3.001579 7.717577 0.000000
      CHANNELS 3 Yrotation Xrotation Zrotation
      JOINT RightShoulder
      {
       OFFSET -14.002642 0.000000 0.000000
       CHANNELS 3 Yrotation Xrotation Zrotation
       JOINT RightElbow
       {
        OFFSET -30.053852 0.000000 0.000000
        CHANNELS 3 Yrotation Xrotation Zrotation
        JOINT RightWrist
        {
         OFFSET -24.564923 0.000000 -0.000000
         CHANNELS 3 Yrotation Xrotation Zrotation
         End Site
         {
          OFFSET -18.334355 0.000000 0.000000
         }
        }
       }
      }
     }
     JOINT LeftCollar
     {
      OFFSET 3.001579 7.717577 0.000000
      CHANNELS 3 Yrotation Xrotation Zrotation
      JOINT LeftShoulder
      {
       OFFSET 14.002642 0.000000 0.000000
       CHANNELS 3 Yrotation Xrotation Zrotation
       JOINT LeftElbow
       {
        OFFSET 30.053852 0.000000 0.000000
        CHANNELS 3 Yrotation Xrotation Zrotation
        JOINT LeftWrist
        {
         OFFSET 24.564923 0.000000 -0.000000
         CHANNELS 3 Yrotation Xrotation Zrotation
         End Site
         {
          OFFSET 18.334355 0.000000 0.000000
         }
        }
       }
      }
     }
    }
   }
  }
 }
 JOINT RightHip
 {
  OFFSET -8.003235 -0.001175 -0.000120
  CHANNELS 3 Yrotation Xrotation Zrotation
  JOINT RightKnee
  {
   OFFSET 0.000000 -41.759727 0.000113
   CHANNELS 3 Yrotation Xrotation Zrotation
   JOINT RightAnkle
   {
    OFFSET 0.000000 -40.728748 0.000159
    CHANNELS 3 Yrotation Xrotation Zrotation
    JOINT RightToe
    {
     OFFSET 0.000000 -6.515296 14.732841
     CHANNELS 3 Yrotation Xrotation Zrotation
     End Site
     {
      OFFSET 0.000000 -1.502839 6.412115
     }
    }
   }
  }
 }
 JOINT LeftHip
 {
  OFFSET 8.003235 -0.001175 -0.000120
  CHANNELS 3 Yrotation Xrotation Zrotation
  JOINT LeftKnee
  {
   OFFSET 0.000000 -41.759727 0.000113
   CHANNELS 3 Yrotation Xrotation Zrotation
   JOINT LeftAnkle
   {
    OFFSET 0.000000 -40.728748 0.000159
    CHANNELS 3 Yrotation Xrotation Zrotation
    JOINT LeftToe
    {
     OFFSET 0.000000 -6.515296 14.732841
     CHANNELS 3 Yrotation Xrotation Zrotation
     End Site
     {
      OFFSET 0.000000 -1.502839 6.412115
     }
    }
   }
  }
 }
}
MOTION
Frames: 17
Frame Time: 0.016667
0.000000 88.822259 0.000000 0.000000 -5.826342 0.000000 0.000000 11.116423 0.000000 0.000000 -5.290081 0.000000 0.000000 0.000000 0.000000 0.000000 0.000000 0.000000 0.000000 12.665069 0.000000 0.000000 0.575450 0.000000 0.000000 0.000000 0.000000 0.000000 0.000000 0.000000 2.337306 0.000000 0.000000 -2.337306 0.000000 0.000000 0.000000 0.000000 0.000000 0.000000 0.000000 0.000000 -2.337306 0.000000 0.000000 2.337306 0.000000 0.000000 0.000000 8.578828 0.000000 0.000000 1.905768 0.000000 0.000000 -4.658254 0.000000 0.000000 0.000000 0.000000 0.000000 8.578828 0.000000 0.000000 1.905768 0.000000 0.000000 -4.658254 0.000000 0.000000 0.000000 0.000000
18.260271 90.314818 19.848124 -20.355553 -12.408970 0.654463 0.693019 7.966091 -1.051465 0.256755 3.606901 -0.457158 0.256755 3.606901 -0.457158 0.195204 2.704986 -0.344272 -10.809832 22.089661 4.188617 -20.650108 6.231496 10.434694 6.525342 5.813264 9.094145 74.203425 -9.813957 70.946297 10.622856 30.464993 11.003649 -3.125175 14.942894 -1.794346 -23.860648 9.082461 -10.791276 -35.200434 5.630256 -58.022748 -20.234219 -23.305384 -7.166611 6.265711 11.847326 5.293287 -8.039617 22.534368 -10.747811 -3.060752 -4.929623 6.545912 -1.731134 -5.352614 1.990746 -0.239153 0.099819 -0.116818 -12.131122 11.491631 -1.913512 4.878895 4.088753 0.585588 0.774932 -3.437172 -1.723903 0.023904 0.053374 0.007581
18.255896 90.313623 19.852918 -20.339028 -12.427689 0.652499 0.669241 7.982450 -1.062752 0.258882 3.598526 -0.458424 0.258882 3.598526 -0.458424 0.196800 2.698702 -0.345231 -10.813718 22.086748 4.197143 -20.659666 6.228573 10.451380 6.546701 5.838981 9.096490 74.209280 -9.815280 70.932789 10.621877 30.500200 11.039521 -3.130294 14.943334 -1.773483 -23.865871 9.086612 -10.785174 -35.157087 5.612172 -58.022872 -20.213294 -23.252141 -7.194539 6.275016 11.854591 5.275985 -8.125421 22.562713 -10.767166 -2.980490 -4.955351 6.532006 -1.742717 -5.348507 1.991058 -0.232641 0.096865 -0.113186 -12.151001 11.511975 -1.916762 4.849618 4.089219 0.580265 0.804179 -3.442147 -1.724227 0.026138 0.056929 0.008766
18.241695 90.314722 19.860324 -20.319586 -12.473765 0.637489 0.647109 8.006433 -1.062056 0.262965 3.593399 -0.460120 0.262965 3.593399 -0.460120 0.199868 2.694854 -0.346525 -10.816092 22.092537 4.205596 -20.665413 6.241342 10.466110 6.571869 5.875340 9.100662 74.190827 -9.821769 70.905600 10.634725 30.595400 11.120320 -3.087140 14.928361 -1.801287 -23.879666 9.108480 -10.777441 -35.139304 5.596401 -58.028650 -20.210199 -23.201679 -7.215958 6.279313 11.845234 5.266372 -8.202357 22.613939 -10.764655 -2.935996 -4.969414 6.516182 -1.783715 -5.321950 1.973454 -0.187335 0.072416 -0.091828 -12.187356 11.568169 -1.910826 4.837185 4.087719 0.578608 0.819785 -3.442915 -1.733149 0.025556 0.051693 0.009283
18.225172 90.316467 19.861586 -20.331818 -12.478959 0.627418 0.660868 7.988978 -1.057677 0.270187 3.585730 -0.460637 0.270187 3.585730 -0.460637 0.205280 2.689096 -0.346952 -10.821209 22.102255 4.209872 -20.674531 6.260954 10.473386 6.593847 5.924626 9.104672 74.197891 -9.818594 70.897860 10.630678 30.669202 11.157860 -3.015359 14.941108 -1.853302 -23.896052 9.127626 -10.775003 -35.155300 5.609088 -58.039668 -20.215864 -23.208238 -7.212107 6.274680 11.852848 5.247867 -8.231167 22.622556 -10.746586 -2.911701 -4.977437 6.499306 -1.835612 -5.309927 1.967883 -0.170855 0.063335 -0.082131 -12.194470 11.585344 -1.891553 4.843995 4.084062 0.571592 0.822239 -3.443792 -1.738742 0.024497 0.048552 0.009122
18.208356 90.316935 19.860202 -20.344870 -12.459020 0.618171 0.675746 7.961752 -1.055262 0.277456 3.573335 -0.460859 0.277456 3.573335 -0.460859 0.210722 2.679795 -0.347156 -10.824545 22.113308 4.212081 -20.679744 6.282280 10.476304 6.621220 5.978585 9.102147 74.254967 -9.820464 70.904619 10.602887 30.715699 11.152310 -2.938766 14.949653 -1.920376 -23.911407 9.138124 -10.773624 -35.148058 5.620896 -58.049319 -20.229297 -23.187459 -7.205427 6.271051 11.850077 5.252844 -8.248916 22.604281 -10.727417 -2.905570 -4.981404 6.493694 -1.843697 -5.305375 1.958045 -0.160375 0.060955 -0.076525 -12.197603 11.576425 -1.865834 4.859031 4.082716 0.565880 0.825781 -3.448487 -1.745550 0.022943 0.048831 0.007891
18.194114 90.316126 19.855846 -20.364249 -12.429402 0.613406 0.687125 7.934800 -1.054618 0.282249 3.561846 -0.459897 0.282249 3.561846 -0.459897 0.214302 2.671175 -0.346458 -10.824244 22.120114 4.210631 -20.677990 6.294422 10.472500 6.669242 6.023240 9.091193 74.277596 -9.833302 70.898999 10.601448 30.806247 11.193027 -2.883628 14.949400 -1.997342 -23.914329 9.137088 -10.775252 -35.129213 5.634034 -58.041661 -20.247999 -23.164856 -7.200555 6.259574 11.853804 5.274980 -8.246227 22.574260 -10.710904 -2.909915 -4.982533 6.491845 -1.858624 -5.303235 1.956971 -0.160487 0.062590 -0.077080 -12.203382 11.552534 -1.845954 4.889217 4.084427 0.567206 0.814483 -3.454814 -1.755300 0.021487 0.051718 0.007045
18.183474 90.315631 19.851190 -20.381657 -12.403442 0.610796 0.701546 7.914713 -1.060225 0.289939 3.551944 -0.461029 0.289939 3.551944 -0.461029 0.220067 2.663742 -0.347348 -10.825906 22.127589 4.214204 -20.680983 6.309165 10.478046 6.712737 6.049947 9.093434 74.250463 -9.857313 70.873726 10.621887 30.951517 11.276378 -2.838249 14.958375 -2.038768 -23.929200 9.140475 -10.761805 -35.110897 5.645421 -58.027422 -20.263993 -23.151408 -7.189487 6.254353 11.864053 5.301668 -8.239951 22.546474 -10.693830 -2.901376 -4.983583 6.483389 -1.826625 -5.305816 1.956162 -0.164988 0.066476 -0.079944 -12.219948 11.528857 -1.831987 4.905584 4.089432 0.563320 0.830652 -3.460781 -1.760985 0.019720 0.053487 0.006515
18.170604 90.315882 19.850138 -20.376364 -12.388603 0.599160 0.694350 7.919849 -1.060391 0.299379 3.540125 -0.462974 0.299379 3.540125 -0.462974 0.227148 2.654870 -0.348856 -10.828245 22.133549 4.218749 -20.685631 6.321445 10.485747 6.751232 6.064829 9.098484 74.270000 -9.863642 70.848545 10.640495 31.095459 11.335023 -2.790891 14.976526 -2.028516 -23.946939 9.141784 -10.742994 -35.106609 5.654129 -58.016001 -20.270779 -23.130388 -7.171806 6.255825 11.869184 5.323153 -8.273681 22.534967 -10.676713 -2.880531 -4.993272 6.470656 -1.861841 -5.289995 1.947304 -0.132828 0.055535 -0.067329 -12.261325 11.516643 -1.814615 4.921780 4.094825 0.557203 0.847804 -3.460134 -1.766846 0.017050 0.048249 0.005960
18.160464 90.314678 19.846851 -20.388898 -12.343829 0.593345 0.706328 7.898129 -1.061105 0.308972 3.525088 -0.464806 0.308972 3.525088 -0.464806 0.234340 2.643584 -0.350279 -10.829883 22.142177 4.222218 -20.688412 6.338279 10.490907 6.793143 6.098775 9.107224 74.322099 -9.865175 70.852681 10.627712 31.258927 11.327274 -2.722801 15.004575 -2.007489 -23.968526 9.155412 -10.732225 -35.096896 5.660601 -57.994491 -20.279646 -23.090389 -7.169365 6.258312 11.865860 5.330572 -8.287844 22.494216 -10.654172 -2.882213 -5.000629 6.459883 -1.792619 -5.295515 1.940089 -0.123482 0.062740 -0.065742 -12.289333 11.471039 -1.795155 4.931686 4.107959 0.550224 0.876348 -3.471139 -1.771765 0.014360 0.050676 0.005847
18.148349 90.314577 19.842983 -20.395537 -12.314023 0.582078 0.714323 7.882104 -1.053894 0.316019 3.513691 -0.466698 0.316019 3.513691 -0.466698 0.239626 2.635030 -0.351733 -10.828298 22.150563 4.225843 -20.685463 6.354131 10.495600 6.844454 6.142142 9.111434 74.309867 -9.879753 70.843609 10.641555 31.542387 11.350879 -2.628546 15.037669 -2.020873 -23.984054 9.170689 -10.728523 -35.111474 5.666297 -57.973763 -20.281078 -23.076636 -7.167189 6.257310 11.868321 5.318760 -8.320182 22.465693 -10.636044 -2.879024 -5.003503 6.456591 -1.810166 -5.297288 1.928222 -0.098464 0.066793 -0.055922 -12.325487 11.438778 -1.778593 4.965499 4.123191 0.553336 0.891456 -3.481191 -1.780583 0.010813 0.051866 0.004188
18.137249 90.316566 19.840771 -20.383588 -12.301458 0.567623 0.714891 7.872666 -1.045107 0.323122 3.503124 -0.467510 0.323122 3.503124 -0.467510 0.244949 2.627099 -0.352378 -10.830466 22.162749 4.228641 -20.688585 6.377449 10.499095 6.887163 6.198783 9.119683 74.358955 -9.828577 70.829254 10.693016 31.775487 11.345242 -2.536055 15.078903 -2.066678 -24.005553 9.191506 -10.725902 -35.121695 5.662585 -57.955651 -20.279377 -23.039215 -7.178969 6.256920 11.848984 5.289914 -8.359059 22.452759 -10.619180 -2.877904 -5.003615 6.453659 -1.884145 -5.273900 1.916825 -0.062524 0.047019 -0.040772 -12.372643 11.419539 -1.762984 5.000742 4.142525 0.553573 0.893708 -3.475346 -1.787377 0.007590 0.036954 0.002721
18.129354 90.318827 19.835456 -20.382415 -12.279690 0.561229 0.728362 7.845600 -1.036552 0.328357 3.492462 -0.466879 0.328357 3.492462 -0.466879 0.248862 2.619098 -0.351929 -10.831556 22.177601 4.225448 -20.687898 6.404246 10.491170 6.942760 6.284602 9.136228 74.682591 -9.653185 70.976687 10.599458 31.738199 10.986973 -2.458907 15.095149 -2.108268 -24.024288 9.222574 -10.737174 -35.115636 5.653255 -57.921093 -20.277046 -23.004653 -7.213185 6.260668 11.854495 5.259180 -8.371847 22.427371 -10.602071 -2.876513 -5.000780 6.449586 -1.924586 -5.268625 1.911440 -0.049289 0.044381 -0.034983 -12.399419 11.388219 -1.749197 5.016000 4.163470 0.548902 0.908288 -3.479218 -1.789390 0.005045 0.032785 0.001035
18.126363 90.320951 19.828897 -20.381646 -12.248211 0.556947 0.741800 7.814854 -1.028064 0.331773 3.481813 -0.464379 0.331773 3.481813 -0.464379 0.251402 2.611111 -0.350070 -10.831590 22.188900 4.218908 -20.684888 6.423653 10.477601 7.032594 6.247739 9.183272 74.968313 -9.388646 71.358708 10.422682 31.709205 10.439325 -2.367167 15.078146 -2.152290 -24.028950 9.246814 -10.749466 -35.117870 5.645956 -57.882167 -20.267623 -22.945148 -7.261733 6.252613 11.831417 5.236882 -8.333746 22.389950 -10.574602 -2.892656 -4.988658 6.448592 -1.956031 -5.263694 1.908495 -0.044593 0.039463 -0.032784 -12.408136 11.350345 -1.735332 5.025402 4.172873 0.548779 0.908112 -3.474833 -1.791973 0.003390 0.028985 -0.000111
18.125878 90.323013 19.822108 -20.381139 -12.222280 0.551829 0.753351 7.788206 -1.017652 0.334404 3.472455 -0.459950 0.334404 3.472455 -0.459950 0.253343 2.604093 -0.346759 -10.829342 22.197069 4.211912 -20.678040 6.436819 10.463184 7.252077 5.872576 9.339431 75.318795 -8.818366 72.066247 10.168054 31.447385 9.713813 -2.231795 14.977524 -2.203216 -24.019842 9.265331 -10.764793 -35.147107 5.647485 -57.848792 -20.256553 -22.936637 -7.284407 6.237119 11.835442 5.217876 -8.268548 22.360311 -10.541724 -2.918137 -4.975310 6.449921 -1.974163 -5.257759 1.905682 -0.044067 0.032580 -0.032315 -12.387991 11.320471 -1.717157 5.013887 4.177595 0.549087 0.892982 -3.468583 -1.793268 0.003351 0.026454 -0.000871
18.126162 90.325462 19.816960 -20.383026 -12.201832 0.553660 0.760572 7.772029 -1.007607 0.336472 3.466543 -0.453488 0.336472 3.466543 -0.453488 0.254852 2.599660 -0.341923 -10.823330 22.195836 4.205505 -20.665724 6.432188 10.450472 7.480368 5.347839 9.508621 76.252959 -8.026809 72.910250 9.693662 30.512268 8.627269 -1.943179 14.829265 -2.230192 -23.998882 9.267444 -10.792804 -35.195401 5.663527 -57.814910 -20.265678 -22.941000 -7.297372 6.215626 11.825035 5.205939 -8.219366 22.339146 -10.532679 -2.939796 -4.970432 6.463530 -1.970758 -5.246569 1.905222 -0.052554 0.024024 -0.036426 -12.347992 11.298645 -1.705346 5.001599 4.176895 0.551134 0.872986 -3.458370 -1.792641 0.005578 0.022360 -0.002063
18.122412 90.327161 19.813858 -20.376481 -12.175738 0.554816 0.755203 7.760674 -0.994456 0.334335 3.460477 -0.445909 0.334335 3.460477 -0.445909 0.253203 2.595116 -0.336225 -10.811381 22.184798 4.199499 -20.644029 6.408599 10.438663 7.499041 5.148228 9.537836 76.917239 -7.856493 73.477292 9.085223 30.090711 7.699630 -1.603879 14.642510 -2.320778 -23.966442 9.259422 -10.830687 -35.229712 5.684305 -57.783677 -20.289707 -22.957094 -7.294812 6.196749 11.837712 5.184393 -8.199351 22.320760 -10.528015 -2.955970 -4.978309 6.476695 -1.938752 -5.235028 1.903270 -0.059871 0.017195 -0.041793 -12.307400 11.271679 -1.693853 4.983695 4.178277 0.564165 0.850169 -3.451209 -1.800612 0.009350 0.019294 -0.002764
